%TF.GenerationSoftware,KiCad,Pcbnew,6.0.4-6f826c9f35~116~ubuntu18.04.1*%
%TF.CreationDate,2022-04-21T22:13:37-04:00*%
%TF.ProjectId,368project,33363870-726f-46a6-9563-742e6b696361,rev?*%
%TF.SameCoordinates,Original*%
%TF.FileFunction,Legend,Top*%
%TF.FilePolarity,Positive*%
%FSLAX46Y46*%
G04 Gerber Fmt 4.6, Leading zero omitted, Abs format (unit mm)*
G04 Created by KiCad (PCBNEW 6.0.4-6f826c9f35~116~ubuntu18.04.1) date 2022-04-21 22:13:37*
%MOMM*%
%LPD*%
G01*
G04 APERTURE LIST*
%ADD10C,0.150000*%
%ADD11C,0.127000*%
%ADD12C,0.120000*%
%ADD13C,0.152400*%
G04 APERTURE END LIST*
D10*
X169743809Y-129718571D02*
X170077142Y-129718571D01*
X170220000Y-130242380D02*
X169743809Y-130242380D01*
X169743809Y-129242380D01*
X170220000Y-129242380D01*
X171220000Y-130147142D02*
X171172380Y-130194761D01*
X171029523Y-130242380D01*
X170934285Y-130242380D01*
X170791428Y-130194761D01*
X170696190Y-130099523D01*
X170648571Y-130004285D01*
X170600952Y-129813809D01*
X170600952Y-129670952D01*
X170648571Y-129480476D01*
X170696190Y-129385238D01*
X170791428Y-129290000D01*
X170934285Y-129242380D01*
X171029523Y-129242380D01*
X171172380Y-129290000D01*
X171220000Y-129337619D01*
X171648571Y-129718571D02*
X171981904Y-129718571D01*
X172124761Y-130242380D02*
X171648571Y-130242380D01*
X171648571Y-129242380D01*
X172124761Y-129242380D01*
X172315238Y-130337619D02*
X173077142Y-130337619D01*
X173220000Y-129242380D02*
X173839047Y-129242380D01*
X173505714Y-129623333D01*
X173648571Y-129623333D01*
X173743809Y-129670952D01*
X173791428Y-129718571D01*
X173839047Y-129813809D01*
X173839047Y-130051904D01*
X173791428Y-130147142D01*
X173743809Y-130194761D01*
X173648571Y-130242380D01*
X173362857Y-130242380D01*
X173267619Y-130194761D01*
X173220000Y-130147142D01*
X174696190Y-129242380D02*
X174505714Y-129242380D01*
X174410476Y-129290000D01*
X174362857Y-129337619D01*
X174267619Y-129480476D01*
X174220000Y-129670952D01*
X174220000Y-130051904D01*
X174267619Y-130147142D01*
X174315238Y-130194761D01*
X174410476Y-130242380D01*
X174600952Y-130242380D01*
X174696190Y-130194761D01*
X174743809Y-130147142D01*
X174791428Y-130051904D01*
X174791428Y-129813809D01*
X174743809Y-129718571D01*
X174696190Y-129670952D01*
X174600952Y-129623333D01*
X174410476Y-129623333D01*
X174315238Y-129670952D01*
X174267619Y-129718571D01*
X174220000Y-129813809D01*
X175172380Y-129337619D02*
X175220000Y-129290000D01*
X175315238Y-129242380D01*
X175553333Y-129242380D01*
X175648571Y-129290000D01*
X175696190Y-129337619D01*
X175743809Y-129432857D01*
X175743809Y-129528095D01*
X175696190Y-129670952D01*
X175124761Y-130242380D01*
X175743809Y-130242380D01*
X168862857Y-131328571D02*
X169005714Y-131376190D01*
X169053333Y-131423809D01*
X169100952Y-131519047D01*
X169100952Y-131661904D01*
X169053333Y-131757142D01*
X169005714Y-131804761D01*
X168910476Y-131852380D01*
X168529523Y-131852380D01*
X168529523Y-130852380D01*
X168862857Y-130852380D01*
X168958095Y-130900000D01*
X169005714Y-130947619D01*
X169053333Y-131042857D01*
X169053333Y-131138095D01*
X169005714Y-131233333D01*
X168958095Y-131280952D01*
X168862857Y-131328571D01*
X168529523Y-131328571D01*
X169672380Y-131852380D02*
X169577142Y-131804761D01*
X169529523Y-131757142D01*
X169481904Y-131661904D01*
X169481904Y-131376190D01*
X169529523Y-131280952D01*
X169577142Y-131233333D01*
X169672380Y-131185714D01*
X169815238Y-131185714D01*
X169910476Y-131233333D01*
X169958095Y-131280952D01*
X170005714Y-131376190D01*
X170005714Y-131661904D01*
X169958095Y-131757142D01*
X169910476Y-131804761D01*
X169815238Y-131852380D01*
X169672380Y-131852380D01*
X170434285Y-131852380D02*
X170434285Y-131185714D01*
X170434285Y-130852380D02*
X170386666Y-130900000D01*
X170434285Y-130947619D01*
X170481904Y-130900000D01*
X170434285Y-130852380D01*
X170434285Y-130947619D01*
X171053333Y-131852380D02*
X170958095Y-131804761D01*
X170910476Y-131709523D01*
X170910476Y-130852380D01*
X171815238Y-131804761D02*
X171720000Y-131852380D01*
X171529523Y-131852380D01*
X171434285Y-131804761D01*
X171386666Y-131709523D01*
X171386666Y-131328571D01*
X171434285Y-131233333D01*
X171529523Y-131185714D01*
X171720000Y-131185714D01*
X171815238Y-131233333D01*
X171862857Y-131328571D01*
X171862857Y-131423809D01*
X171386666Y-131519047D01*
X172291428Y-131852380D02*
X172291428Y-131185714D01*
X172291428Y-131376190D02*
X172339047Y-131280952D01*
X172386666Y-131233333D01*
X172481904Y-131185714D01*
X172577142Y-131185714D01*
X172672380Y-131947619D02*
X173434285Y-131947619D01*
X173672380Y-131852380D02*
X173672380Y-130852380D01*
X174053333Y-130852380D01*
X174148571Y-130900000D01*
X174196190Y-130947619D01*
X174243809Y-131042857D01*
X174243809Y-131185714D01*
X174196190Y-131280952D01*
X174148571Y-131328571D01*
X174053333Y-131376190D01*
X173672380Y-131376190D01*
X174815238Y-131852380D02*
X174720000Y-131804761D01*
X174672380Y-131757142D01*
X174624761Y-131661904D01*
X174624761Y-131376190D01*
X174672380Y-131280952D01*
X174720000Y-131233333D01*
X174815238Y-131185714D01*
X174958095Y-131185714D01*
X175053333Y-131233333D01*
X175100952Y-131280952D01*
X175148571Y-131376190D01*
X175148571Y-131661904D01*
X175100952Y-131757142D01*
X175053333Y-131804761D01*
X174958095Y-131852380D01*
X174815238Y-131852380D01*
X175577142Y-131185714D02*
X175577142Y-131852380D01*
X175577142Y-131280952D02*
X175624761Y-131233333D01*
X175720000Y-131185714D01*
X175862857Y-131185714D01*
X175958095Y-131233333D01*
X176005714Y-131328571D01*
X176005714Y-131852380D01*
X176910476Y-131185714D02*
X176910476Y-131995238D01*
X176862857Y-132090476D01*
X176815238Y-132138095D01*
X176720000Y-132185714D01*
X176577142Y-132185714D01*
X176481904Y-132138095D01*
X176910476Y-131804761D02*
X176815238Y-131852380D01*
X176624761Y-131852380D01*
X176529523Y-131804761D01*
X176481904Y-131757142D01*
X176434285Y-131661904D01*
X176434285Y-131376190D01*
X176481904Y-131280952D01*
X176529523Y-131233333D01*
X176624761Y-131185714D01*
X176815238Y-131185714D01*
X176910476Y-131233333D01*
X169077142Y-132462380D02*
X169648571Y-132462380D01*
X169362857Y-133462380D02*
X169362857Y-132462380D01*
X170362857Y-133414761D02*
X170267619Y-133462380D01*
X170077142Y-133462380D01*
X169981904Y-133414761D01*
X169934285Y-133319523D01*
X169934285Y-132938571D01*
X169981904Y-132843333D01*
X170077142Y-132795714D01*
X170267619Y-132795714D01*
X170362857Y-132843333D01*
X170410476Y-132938571D01*
X170410476Y-133033809D01*
X169934285Y-133129047D01*
X171267619Y-133462380D02*
X171267619Y-132938571D01*
X171220000Y-132843333D01*
X171124761Y-132795714D01*
X170934285Y-132795714D01*
X170839047Y-132843333D01*
X171267619Y-133414761D02*
X171172380Y-133462380D01*
X170934285Y-133462380D01*
X170839047Y-133414761D01*
X170791428Y-133319523D01*
X170791428Y-133224285D01*
X170839047Y-133129047D01*
X170934285Y-133081428D01*
X171172380Y-133081428D01*
X171267619Y-133033809D01*
X171743809Y-133462380D02*
X171743809Y-132795714D01*
X171743809Y-132890952D02*
X171791428Y-132843333D01*
X171886666Y-132795714D01*
X172029523Y-132795714D01*
X172124761Y-132843333D01*
X172172380Y-132938571D01*
X172172380Y-133462380D01*
X172172380Y-132938571D02*
X172220000Y-132843333D01*
X172315238Y-132795714D01*
X172458095Y-132795714D01*
X172553333Y-132843333D01*
X172600952Y-132938571D01*
X172600952Y-133462380D01*
X174029523Y-132462380D02*
X174124761Y-132462380D01*
X174220000Y-132510000D01*
X174267619Y-132557619D01*
X174315238Y-132652857D01*
X174362857Y-132843333D01*
X174362857Y-133081428D01*
X174315238Y-133271904D01*
X174267619Y-133367142D01*
X174220000Y-133414761D01*
X174124761Y-133462380D01*
X174029523Y-133462380D01*
X173934285Y-133414761D01*
X173886666Y-133367142D01*
X173839047Y-133271904D01*
X173791428Y-133081428D01*
X173791428Y-132843333D01*
X173839047Y-132652857D01*
X173886666Y-132557619D01*
X173934285Y-132510000D01*
X174029523Y-132462380D01*
X174743809Y-132557619D02*
X174791428Y-132510000D01*
X174886666Y-132462380D01*
X175124761Y-132462380D01*
X175220000Y-132510000D01*
X175267619Y-132557619D01*
X175315238Y-132652857D01*
X175315238Y-132748095D01*
X175267619Y-132890952D01*
X174696190Y-133462380D01*
X175315238Y-133462380D01*
X176172380Y-132795714D02*
X176172380Y-133462380D01*
X175934285Y-132414761D02*
X175696190Y-133129047D01*
X176315238Y-133129047D01*
X169291428Y-135072380D02*
X169291428Y-134072380D01*
X169529523Y-134072380D01*
X169672380Y-134120000D01*
X169767619Y-134215238D01*
X169815238Y-134310476D01*
X169862857Y-134500952D01*
X169862857Y-134643809D01*
X169815238Y-134834285D01*
X169767619Y-134929523D01*
X169672380Y-135024761D01*
X169529523Y-135072380D01*
X169291428Y-135072380D01*
X170720000Y-135072380D02*
X170720000Y-134548571D01*
X170672380Y-134453333D01*
X170577142Y-134405714D01*
X170386666Y-134405714D01*
X170291428Y-134453333D01*
X170720000Y-135024761D02*
X170624761Y-135072380D01*
X170386666Y-135072380D01*
X170291428Y-135024761D01*
X170243809Y-134929523D01*
X170243809Y-134834285D01*
X170291428Y-134739047D01*
X170386666Y-134691428D01*
X170624761Y-134691428D01*
X170720000Y-134643809D01*
X171100952Y-134405714D02*
X171339047Y-135072380D01*
X171577142Y-134405714D01*
X171958095Y-135072380D02*
X171958095Y-134405714D01*
X171958095Y-134072380D02*
X171910476Y-134120000D01*
X171958095Y-134167619D01*
X172005714Y-134120000D01*
X171958095Y-134072380D01*
X171958095Y-134167619D01*
X172862857Y-135072380D02*
X172862857Y-134072380D01*
X172862857Y-135024761D02*
X172767619Y-135072380D01*
X172577142Y-135072380D01*
X172481904Y-135024761D01*
X172434285Y-134977142D01*
X172386666Y-134881904D01*
X172386666Y-134596190D01*
X172434285Y-134500952D01*
X172481904Y-134453333D01*
X172577142Y-134405714D01*
X172767619Y-134405714D01*
X172862857Y-134453333D01*
X174577142Y-135072380D02*
X174100952Y-135072380D01*
X174100952Y-134072380D01*
X175291428Y-135024761D02*
X175196190Y-135072380D01*
X175005714Y-135072380D01*
X174910476Y-135024761D01*
X174862857Y-134929523D01*
X174862857Y-134548571D01*
X174910476Y-134453333D01*
X175005714Y-134405714D01*
X175196190Y-134405714D01*
X175291428Y-134453333D01*
X175339047Y-134548571D01*
X175339047Y-134643809D01*
X174862857Y-134739047D01*
X176148571Y-135024761D02*
X176053333Y-135072380D01*
X175862857Y-135072380D01*
X175767619Y-135024761D01*
X175720000Y-134929523D01*
X175720000Y-134548571D01*
X175767619Y-134453333D01*
X175862857Y-134405714D01*
X176053333Y-134405714D01*
X176148571Y-134453333D01*
X176196190Y-134548571D01*
X176196190Y-134643809D01*
X175720000Y-134739047D01*
X168505714Y-136682380D02*
X168505714Y-135682380D01*
X168505714Y-136158571D02*
X169077142Y-136158571D01*
X169077142Y-136682380D02*
X169077142Y-135682380D01*
X169981904Y-136682380D02*
X169981904Y-136158571D01*
X169934285Y-136063333D01*
X169839047Y-136015714D01*
X169648571Y-136015714D01*
X169553333Y-136063333D01*
X169981904Y-136634761D02*
X169886666Y-136682380D01*
X169648571Y-136682380D01*
X169553333Y-136634761D01*
X169505714Y-136539523D01*
X169505714Y-136444285D01*
X169553333Y-136349047D01*
X169648571Y-136301428D01*
X169886666Y-136301428D01*
X169981904Y-136253809D01*
X170458095Y-136015714D02*
X170458095Y-136682380D01*
X170458095Y-136110952D02*
X170505714Y-136063333D01*
X170600952Y-136015714D01*
X170743809Y-136015714D01*
X170839047Y-136063333D01*
X170886666Y-136158571D01*
X170886666Y-136682380D01*
X171981904Y-135682380D02*
X172553333Y-135682380D01*
X172267619Y-136682380D02*
X172267619Y-135682380D01*
X173315238Y-136015714D02*
X173315238Y-136682380D01*
X172886666Y-136015714D02*
X172886666Y-136539523D01*
X172934285Y-136634761D01*
X173029523Y-136682380D01*
X173172380Y-136682380D01*
X173267619Y-136634761D01*
X173315238Y-136587142D01*
X173791428Y-136015714D02*
X173791428Y-136682380D01*
X173791428Y-136110952D02*
X173839047Y-136063333D01*
X173934285Y-136015714D01*
X174077142Y-136015714D01*
X174172380Y-136063333D01*
X174220000Y-136158571D01*
X174220000Y-136682380D01*
X175648571Y-135682380D02*
X175839047Y-135682380D01*
X175934285Y-135730000D01*
X176029523Y-135825238D01*
X176077142Y-136015714D01*
X176077142Y-136349047D01*
X176029523Y-136539523D01*
X175934285Y-136634761D01*
X175839047Y-136682380D01*
X175648571Y-136682380D01*
X175553333Y-136634761D01*
X175458095Y-136539523D01*
X175410476Y-136349047D01*
X175410476Y-136015714D01*
X175458095Y-135825238D01*
X175553333Y-135730000D01*
X175648571Y-135682380D01*
X176648571Y-136682380D02*
X176553333Y-136634761D01*
X176505714Y-136587142D01*
X176458095Y-136491904D01*
X176458095Y-136206190D01*
X176505714Y-136110952D01*
X176553333Y-136063333D01*
X176648571Y-136015714D01*
X176791428Y-136015714D01*
X176886666Y-136063333D01*
X176934285Y-136110952D01*
X176981904Y-136206190D01*
X176981904Y-136491904D01*
X176934285Y-136587142D01*
X176886666Y-136634761D01*
X176791428Y-136682380D01*
X176648571Y-136682380D01*
X168339047Y-138292380D02*
X168339047Y-137292380D01*
X168720000Y-137292380D01*
X168815238Y-137340000D01*
X168862857Y-137387619D01*
X168910476Y-137482857D01*
X168910476Y-137625714D01*
X168862857Y-137720952D01*
X168815238Y-137768571D01*
X168720000Y-137816190D01*
X168339047Y-137816190D01*
X169767619Y-138292380D02*
X169767619Y-137768571D01*
X169720000Y-137673333D01*
X169624761Y-137625714D01*
X169434285Y-137625714D01*
X169339047Y-137673333D01*
X169767619Y-138244761D02*
X169672380Y-138292380D01*
X169434285Y-138292380D01*
X169339047Y-138244761D01*
X169291428Y-138149523D01*
X169291428Y-138054285D01*
X169339047Y-137959047D01*
X169434285Y-137911428D01*
X169672380Y-137911428D01*
X169767619Y-137863809D01*
X170243809Y-138292380D02*
X170243809Y-137625714D01*
X170243809Y-137292380D02*
X170196190Y-137340000D01*
X170243809Y-137387619D01*
X170291428Y-137340000D01*
X170243809Y-137292380D01*
X170243809Y-137387619D01*
X170720000Y-137625714D02*
X170720000Y-138292380D01*
X170720000Y-137720952D02*
X170767619Y-137673333D01*
X170862857Y-137625714D01*
X171005714Y-137625714D01*
X171100952Y-137673333D01*
X171148571Y-137768571D01*
X171148571Y-138292380D01*
X172053333Y-137625714D02*
X172053333Y-138435238D01*
X172005714Y-138530476D01*
X171958095Y-138578095D01*
X171862857Y-138625714D01*
X171720000Y-138625714D01*
X171624761Y-138578095D01*
X172053333Y-138244761D02*
X171958095Y-138292380D01*
X171767619Y-138292380D01*
X171672380Y-138244761D01*
X171624761Y-138197142D01*
X171577142Y-138101904D01*
X171577142Y-137816190D01*
X171624761Y-137720952D01*
X171672380Y-137673333D01*
X171767619Y-137625714D01*
X171958095Y-137625714D01*
X172053333Y-137673333D01*
X173291428Y-138292380D02*
X173291428Y-137292380D01*
X173862857Y-138292380D02*
X173434285Y-137720952D01*
X173862857Y-137292380D02*
X173291428Y-137863809D01*
X174291428Y-138292380D02*
X174291428Y-137292380D01*
X174720000Y-138292380D02*
X174720000Y-137768571D01*
X174672380Y-137673333D01*
X174577142Y-137625714D01*
X174434285Y-137625714D01*
X174339047Y-137673333D01*
X174291428Y-137720952D01*
X175624761Y-138292380D02*
X175624761Y-137768571D01*
X175577142Y-137673333D01*
X175481904Y-137625714D01*
X175291428Y-137625714D01*
X175196190Y-137673333D01*
X175624761Y-138244761D02*
X175529523Y-138292380D01*
X175291428Y-138292380D01*
X175196190Y-138244761D01*
X175148571Y-138149523D01*
X175148571Y-138054285D01*
X175196190Y-137959047D01*
X175291428Y-137911428D01*
X175529523Y-137911428D01*
X175624761Y-137863809D01*
X176100952Y-137625714D02*
X176100952Y-138292380D01*
X176100952Y-137720952D02*
X176148571Y-137673333D01*
X176243809Y-137625714D01*
X176386666Y-137625714D01*
X176481904Y-137673333D01*
X176529523Y-137768571D01*
X176529523Y-138292380D01*
X176862857Y-137625714D02*
X177243809Y-137625714D01*
X177005714Y-137292380D02*
X177005714Y-138149523D01*
X177053333Y-138244761D01*
X177148571Y-138292380D01*
X177243809Y-138292380D01*
X167839047Y-139902380D02*
X167839047Y-138902380D01*
X168410476Y-139902380D02*
X167981904Y-139330952D01*
X168410476Y-138902380D02*
X167839047Y-139473809D01*
X169220000Y-139854761D02*
X169124761Y-139902380D01*
X168934285Y-139902380D01*
X168839047Y-139854761D01*
X168791428Y-139759523D01*
X168791428Y-139378571D01*
X168839047Y-139283333D01*
X168934285Y-139235714D01*
X169124761Y-139235714D01*
X169220000Y-139283333D01*
X169267619Y-139378571D01*
X169267619Y-139473809D01*
X168791428Y-139569047D01*
X169696190Y-139235714D02*
X169696190Y-139902380D01*
X169696190Y-139330952D02*
X169743809Y-139283333D01*
X169839047Y-139235714D01*
X169981904Y-139235714D01*
X170077142Y-139283333D01*
X170124761Y-139378571D01*
X170124761Y-139902380D01*
X170600952Y-139235714D02*
X170600952Y-139902380D01*
X170600952Y-139330952D02*
X170648571Y-139283333D01*
X170743809Y-139235714D01*
X170886666Y-139235714D01*
X170981904Y-139283333D01*
X171029523Y-139378571D01*
X171029523Y-139902380D01*
X171886666Y-139854761D02*
X171791428Y-139902380D01*
X171600952Y-139902380D01*
X171505714Y-139854761D01*
X171458095Y-139759523D01*
X171458095Y-139378571D01*
X171505714Y-139283333D01*
X171600952Y-139235714D01*
X171791428Y-139235714D01*
X171886666Y-139283333D01*
X171934285Y-139378571D01*
X171934285Y-139473809D01*
X171458095Y-139569047D01*
X172220000Y-139235714D02*
X172600952Y-139235714D01*
X172362857Y-138902380D02*
X172362857Y-139759523D01*
X172410476Y-139854761D01*
X172505714Y-139902380D01*
X172600952Y-139902380D01*
X172934285Y-139902380D02*
X172934285Y-138902380D01*
X173362857Y-139902380D02*
X173362857Y-139378571D01*
X173315238Y-139283333D01*
X173220000Y-139235714D01*
X173077142Y-139235714D01*
X172981904Y-139283333D01*
X172934285Y-139330952D01*
X174553333Y-139854761D02*
X174696190Y-139902380D01*
X174934285Y-139902380D01*
X175029523Y-139854761D01*
X175077142Y-139807142D01*
X175124761Y-139711904D01*
X175124761Y-139616666D01*
X175077142Y-139521428D01*
X175029523Y-139473809D01*
X174934285Y-139426190D01*
X174743809Y-139378571D01*
X174648571Y-139330952D01*
X174600952Y-139283333D01*
X174553333Y-139188095D01*
X174553333Y-139092857D01*
X174600952Y-138997619D01*
X174648571Y-138950000D01*
X174743809Y-138902380D01*
X174981904Y-138902380D01*
X175124761Y-138950000D01*
X175410476Y-139235714D02*
X175791428Y-139235714D01*
X175553333Y-138902380D02*
X175553333Y-139759523D01*
X175600952Y-139854761D01*
X175696190Y-139902380D01*
X175791428Y-139902380D01*
X176124761Y-139902380D02*
X176124761Y-139235714D01*
X176124761Y-138902380D02*
X176077142Y-138950000D01*
X176124761Y-138997619D01*
X176172380Y-138950000D01*
X176124761Y-138902380D01*
X176124761Y-138997619D01*
X176981904Y-139854761D02*
X176886666Y-139902380D01*
X176696190Y-139902380D01*
X176600952Y-139854761D01*
X176553333Y-139759523D01*
X176553333Y-139378571D01*
X176600952Y-139283333D01*
X176696190Y-139235714D01*
X176886666Y-139235714D01*
X176981904Y-139283333D01*
X177029523Y-139378571D01*
X177029523Y-139473809D01*
X176553333Y-139569047D01*
X177458095Y-139902380D02*
X177458095Y-139235714D01*
X177458095Y-139426190D02*
X177505714Y-139330952D01*
X177553333Y-139283333D01*
X177648571Y-139235714D01*
X177743809Y-139235714D01*
%TO.C,U1*%
X110611095Y-57665380D02*
X110611095Y-58474904D01*
X110658714Y-58570142D01*
X110706333Y-58617761D01*
X110801571Y-58665380D01*
X110992047Y-58665380D01*
X111087285Y-58617761D01*
X111134904Y-58570142D01*
X111182523Y-58474904D01*
X111182523Y-57665380D01*
X112182523Y-58665380D02*
X111611095Y-58665380D01*
X111896809Y-58665380D02*
X111896809Y-57665380D01*
X111801571Y-57808238D01*
X111706333Y-57903476D01*
X111611095Y-57951095D01*
%TO.C,C5*%
X156805085Y-104497142D02*
X156757466Y-104544761D01*
X156614609Y-104592380D01*
X156519371Y-104592380D01*
X156376513Y-104544761D01*
X156281275Y-104449523D01*
X156233656Y-104354285D01*
X156186037Y-104163809D01*
X156186037Y-104020952D01*
X156233656Y-103830476D01*
X156281275Y-103735238D01*
X156376513Y-103640000D01*
X156519371Y-103592380D01*
X156614609Y-103592380D01*
X156757466Y-103640000D01*
X156805085Y-103687619D01*
X157709847Y-103592380D02*
X157233656Y-103592380D01*
X157186037Y-104068571D01*
X157233656Y-104020952D01*
X157328894Y-103973333D01*
X157566990Y-103973333D01*
X157662228Y-104020952D01*
X157709847Y-104068571D01*
X157757466Y-104163809D01*
X157757466Y-104401904D01*
X157709847Y-104497142D01*
X157662228Y-104544761D01*
X157566990Y-104592380D01*
X157328894Y-104592380D01*
X157233656Y-104544761D01*
X157186037Y-104497142D01*
%TO.C,C9*%
X135801820Y-108075141D02*
X135754201Y-108122760D01*
X135611344Y-108170379D01*
X135516106Y-108170379D01*
X135373248Y-108122760D01*
X135278010Y-108027522D01*
X135230391Y-107932284D01*
X135182772Y-107741808D01*
X135182772Y-107598951D01*
X135230391Y-107408475D01*
X135278010Y-107313237D01*
X135373248Y-107217999D01*
X135516106Y-107170379D01*
X135611344Y-107170379D01*
X135754201Y-107217999D01*
X135801820Y-107265618D01*
X136278010Y-108170379D02*
X136468487Y-108170379D01*
X136563725Y-108122760D01*
X136611344Y-108075141D01*
X136706582Y-107932284D01*
X136754201Y-107741808D01*
X136754201Y-107360856D01*
X136706582Y-107265618D01*
X136658963Y-107217999D01*
X136563725Y-107170379D01*
X136373248Y-107170379D01*
X136278010Y-107217999D01*
X136230391Y-107265618D01*
X136182772Y-107360856D01*
X136182772Y-107598951D01*
X136230391Y-107694189D01*
X136278010Y-107741808D01*
X136373248Y-107789427D01*
X136563725Y-107789427D01*
X136658963Y-107741808D01*
X136706582Y-107694189D01*
X136754201Y-107598951D01*
%TO.C,LD1*%
X132851333Y-120760380D02*
X132375142Y-120760380D01*
X132375142Y-119760380D01*
X133184666Y-120760380D02*
X133184666Y-119760380D01*
X133422761Y-119760380D01*
X133565619Y-119808000D01*
X133660857Y-119903238D01*
X133708476Y-119998476D01*
X133756095Y-120188952D01*
X133756095Y-120331809D01*
X133708476Y-120522285D01*
X133660857Y-120617523D01*
X133565619Y-120712761D01*
X133422761Y-120760380D01*
X133184666Y-120760380D01*
X134708476Y-120760380D02*
X134137047Y-120760380D01*
X134422761Y-120760380D02*
X134422761Y-119760380D01*
X134327523Y-119903238D01*
X134232285Y-119998476D01*
X134137047Y-120046095D01*
%TO.C,SW1*%
X142737499Y-105924577D02*
X142880356Y-105972196D01*
X143118452Y-105972196D01*
X143213690Y-105924577D01*
X143261309Y-105876958D01*
X143308928Y-105781720D01*
X143308928Y-105686482D01*
X143261309Y-105591244D01*
X143213690Y-105543625D01*
X143118452Y-105496006D01*
X142927975Y-105448387D01*
X142832737Y-105400768D01*
X142785118Y-105353149D01*
X142737499Y-105257911D01*
X142737499Y-105162673D01*
X142785118Y-105067435D01*
X142832737Y-105019816D01*
X142927975Y-104972196D01*
X143166071Y-104972196D01*
X143308928Y-105019816D01*
X143642261Y-104972196D02*
X143880356Y-105972196D01*
X144070833Y-105257911D01*
X144261309Y-105972196D01*
X144499404Y-104972196D01*
X145404166Y-105972196D02*
X144832737Y-105972196D01*
X145118452Y-105972196D02*
X145118452Y-104972196D01*
X145023213Y-105115054D01*
X144927975Y-105210292D01*
X144832737Y-105257911D01*
%TO.C,J2*%
X136109428Y-137671333D02*
X136823714Y-137671333D01*
X136966571Y-137718952D01*
X137061809Y-137814190D01*
X137109428Y-137957047D01*
X137109428Y-138052285D01*
X136204667Y-137242761D02*
X136157048Y-137195142D01*
X136109428Y-137099904D01*
X136109428Y-136861809D01*
X136157048Y-136766571D01*
X136204667Y-136718952D01*
X136299905Y-136671333D01*
X136395143Y-136671333D01*
X136538000Y-136718952D01*
X137109428Y-137290380D01*
X137109428Y-136671333D01*
%TO.C,C3*%
X129238833Y-104497142D02*
X129191214Y-104544761D01*
X129048357Y-104592380D01*
X128953119Y-104592380D01*
X128810261Y-104544761D01*
X128715023Y-104449523D01*
X128667404Y-104354285D01*
X128619785Y-104163809D01*
X128619785Y-104020952D01*
X128667404Y-103830476D01*
X128715023Y-103735238D01*
X128810261Y-103640000D01*
X128953119Y-103592380D01*
X129048357Y-103592380D01*
X129191214Y-103640000D01*
X129238833Y-103687619D01*
X129572166Y-103592380D02*
X130191214Y-103592380D01*
X129857880Y-103973333D01*
X130000738Y-103973333D01*
X130095976Y-104020952D01*
X130143595Y-104068571D01*
X130191214Y-104163809D01*
X130191214Y-104401904D01*
X130143595Y-104497142D01*
X130095976Y-104544761D01*
X130000738Y-104592380D01*
X129715023Y-104592380D01*
X129619785Y-104544761D01*
X129572166Y-104497142D01*
%TO.C,R3*%
X152351298Y-108200379D02*
X152017965Y-107724189D01*
X151779869Y-108200379D02*
X151779869Y-107200379D01*
X152160822Y-107200379D01*
X152256060Y-107247999D01*
X152303679Y-107295618D01*
X152351298Y-107390856D01*
X152351298Y-107533713D01*
X152303679Y-107628951D01*
X152256060Y-107676570D01*
X152160822Y-107724189D01*
X151779869Y-107724189D01*
X152684631Y-107200379D02*
X153303679Y-107200379D01*
X152970345Y-107581332D01*
X153113203Y-107581332D01*
X153208441Y-107628951D01*
X153256060Y-107676570D01*
X153303679Y-107771808D01*
X153303679Y-108009903D01*
X153256060Y-108105141D01*
X153208441Y-108152760D01*
X153113203Y-108200379D01*
X152827488Y-108200379D01*
X152732250Y-108152760D01*
X152684631Y-108105141D01*
D11*
%TO.C,JP2*%
X158764271Y-129112935D02*
X159580700Y-129112935D01*
X159743985Y-129167364D01*
X159852842Y-129276221D01*
X159907271Y-129439507D01*
X159907271Y-129548364D01*
X159907271Y-128568650D02*
X158764271Y-128568650D01*
X158764271Y-128133221D01*
X158818700Y-128024364D01*
X158873128Y-127969935D01*
X158981985Y-127915507D01*
X159145271Y-127915507D01*
X159254128Y-127969935D01*
X159308557Y-128024364D01*
X159362985Y-128133221D01*
X159362985Y-128568650D01*
X158873128Y-127480078D02*
X158818700Y-127425650D01*
X158764271Y-127316792D01*
X158764271Y-127044650D01*
X158818700Y-126935792D01*
X158873128Y-126881364D01*
X158981985Y-126826935D01*
X159090842Y-126826935D01*
X159254128Y-126881364D01*
X159907271Y-127534507D01*
X159907271Y-126826935D01*
%TO.C,JP1*%
X123262571Y-124506264D02*
X124079000Y-124506264D01*
X124242285Y-124560692D01*
X124351142Y-124669550D01*
X124405571Y-124832835D01*
X124405571Y-124941692D01*
X124405571Y-123961978D02*
X123262571Y-123961978D01*
X123262571Y-123526550D01*
X123317000Y-123417692D01*
X123371428Y-123363264D01*
X123480285Y-123308835D01*
X123643571Y-123308835D01*
X123752428Y-123363264D01*
X123806857Y-123417692D01*
X123861285Y-123526550D01*
X123861285Y-123961978D01*
X124405571Y-122220264D02*
X124405571Y-122873407D01*
X124405571Y-122546835D02*
X123262571Y-122546835D01*
X123425857Y-122655692D01*
X123534714Y-122764550D01*
X123589142Y-122873407D01*
D10*
%TO.C,10k1*%
X171039404Y-102052380D02*
X170467976Y-102052380D01*
X170753690Y-102052380D02*
X170753690Y-101052380D01*
X170658452Y-101195238D01*
X170563214Y-101290476D01*
X170467976Y-101338095D01*
X171658452Y-101052380D02*
X171753690Y-101052380D01*
X171848928Y-101100000D01*
X171896547Y-101147619D01*
X171944166Y-101242857D01*
X171991785Y-101433333D01*
X171991785Y-101671428D01*
X171944166Y-101861904D01*
X171896547Y-101957142D01*
X171848928Y-102004761D01*
X171753690Y-102052380D01*
X171658452Y-102052380D01*
X171563214Y-102004761D01*
X171515595Y-101957142D01*
X171467976Y-101861904D01*
X171420357Y-101671428D01*
X171420357Y-101433333D01*
X171467976Y-101242857D01*
X171515595Y-101147619D01*
X171563214Y-101100000D01*
X171658452Y-101052380D01*
X172420357Y-102052380D02*
X172420357Y-101052380D01*
X172515595Y-101671428D02*
X172801309Y-102052380D01*
X172801309Y-101385714D02*
X172420357Y-101766666D01*
X173753690Y-102052380D02*
X173182261Y-102052380D01*
X173467976Y-102052380D02*
X173467976Y-101052380D01*
X173372738Y-101195238D01*
X173277500Y-101290476D01*
X173182261Y-101338095D01*
X171194547Y-105527523D02*
X170468833Y-105527523D01*
X170831690Y-105527523D02*
X170831690Y-104257523D01*
X170710738Y-104438952D01*
X170589785Y-104559904D01*
X170468833Y-104620380D01*
X171980738Y-104257523D02*
X172101690Y-104257523D01*
X172222642Y-104318000D01*
X172283119Y-104378476D01*
X172343595Y-104499428D01*
X172404071Y-104741333D01*
X172404071Y-105043714D01*
X172343595Y-105285619D01*
X172283119Y-105406571D01*
X172222642Y-105467047D01*
X172101690Y-105527523D01*
X171980738Y-105527523D01*
X171859785Y-105467047D01*
X171799309Y-105406571D01*
X171738833Y-105285619D01*
X171678357Y-105043714D01*
X171678357Y-104741333D01*
X171738833Y-104499428D01*
X171799309Y-104378476D01*
X171859785Y-104318000D01*
X171980738Y-104257523D01*
X172948357Y-105527523D02*
X172948357Y-104257523D01*
X173069309Y-105043714D02*
X173432166Y-105527523D01*
X173432166Y-104680857D02*
X172948357Y-105164666D01*
%TO.C,LD2*%
X154138833Y-120645380D02*
X153662642Y-120645380D01*
X153662642Y-119645380D01*
X154472166Y-120645380D02*
X154472166Y-119645380D01*
X154710261Y-119645380D01*
X154853119Y-119693000D01*
X154948357Y-119788238D01*
X154995976Y-119883476D01*
X155043595Y-120073952D01*
X155043595Y-120216809D01*
X154995976Y-120407285D01*
X154948357Y-120502523D01*
X154853119Y-120597761D01*
X154710261Y-120645380D01*
X154472166Y-120645380D01*
X155424547Y-119740619D02*
X155472166Y-119693000D01*
X155567404Y-119645380D01*
X155805500Y-119645380D01*
X155900738Y-119693000D01*
X155948357Y-119740619D01*
X155995976Y-119835857D01*
X155995976Y-119931095D01*
X155948357Y-120073952D01*
X155376928Y-120645380D01*
X155995976Y-120645380D01*
%TO.C,C1*%
X144277142Y-122086666D02*
X144324761Y-122134285D01*
X144372380Y-122277142D01*
X144372380Y-122372380D01*
X144324761Y-122515238D01*
X144229523Y-122610476D01*
X144134285Y-122658095D01*
X143943809Y-122705714D01*
X143800952Y-122705714D01*
X143610476Y-122658095D01*
X143515238Y-122610476D01*
X143420000Y-122515238D01*
X143372380Y-122372380D01*
X143372380Y-122277142D01*
X143420000Y-122134285D01*
X143467619Y-122086666D01*
X144372380Y-121134285D02*
X144372380Y-121705714D01*
X144372380Y-121420000D02*
X143372380Y-121420000D01*
X143515238Y-121515238D01*
X143610476Y-121610476D01*
X143658095Y-121705714D01*
%TO.C,C7*%
X149357142Y-121136666D02*
X149404761Y-121184285D01*
X149452380Y-121327142D01*
X149452380Y-121422380D01*
X149404761Y-121565238D01*
X149309523Y-121660476D01*
X149214285Y-121708095D01*
X149023809Y-121755714D01*
X148880952Y-121755714D01*
X148690476Y-121708095D01*
X148595238Y-121660476D01*
X148500000Y-121565238D01*
X148452380Y-121422380D01*
X148452380Y-121327142D01*
X148500000Y-121184285D01*
X148547619Y-121136666D01*
X148452380Y-120803333D02*
X148452380Y-120136666D01*
X149452380Y-120565238D01*
D12*
%TO.C,U1*%
X168783000Y-61393000D02*
X168783000Y-97393000D01*
X116783000Y-61393000D02*
X168783000Y-61393000D01*
X109163000Y-99723000D02*
X109163000Y-59383000D01*
X168783000Y-97393000D02*
X116783000Y-97393000D01*
X108783000Y-66393000D02*
X108783000Y-71393000D01*
X176603000Y-99723000D02*
X109163000Y-99723000D01*
X109163000Y-59383000D02*
X176603000Y-59383000D01*
X176603000Y-59383000D02*
X176603000Y-99723000D01*
X116783000Y-97393000D02*
X116783000Y-61393000D01*
%TO.C,C5*%
X156449248Y-101043000D02*
X156971752Y-101043000D01*
X156449248Y-102513000D02*
X156971752Y-102513000D01*
%TO.C,C9*%
X135707235Y-108662999D02*
X136229739Y-108662999D01*
X135707235Y-110132999D02*
X136229739Y-110132999D01*
%TO.C,LD1*%
X134518000Y-121138000D02*
X131833000Y-121138000D01*
X131833000Y-123058000D02*
X134518000Y-123058000D01*
X131833000Y-121138000D02*
X131833000Y-123058000D01*
%TO.C,SW1*%
X140840833Y-106339816D02*
X147300833Y-106339816D01*
X140840833Y-106369816D02*
X140840833Y-106339816D01*
X140840833Y-112799816D02*
X140840833Y-112769816D01*
X140840833Y-108269816D02*
X140840833Y-110869816D01*
X147300833Y-106339816D02*
X147300833Y-106369816D01*
X140840833Y-112799816D02*
X147300833Y-112799816D01*
X147300833Y-108269816D02*
X147300833Y-110869816D01*
X147300833Y-112799816D02*
X147300833Y-112769816D01*
%TO.C,J2*%
X133352048Y-140110500D02*
X133352048Y-130990500D01*
X134652048Y-132300500D02*
X152632048Y-132300500D01*
X138562048Y-140500500D02*
X138062048Y-141500500D01*
X145692048Y-138800500D02*
X145692048Y-138800500D01*
X141592048Y-138800500D02*
X134652048Y-138800500D01*
X134652048Y-138800500D02*
X134652048Y-132300500D01*
X139062048Y-141500500D02*
X138562048Y-140500500D01*
X153932048Y-140110500D02*
X133352048Y-140110500D01*
X133352048Y-130990500D02*
X153932048Y-130990500D01*
X152632048Y-132300500D02*
X152632048Y-138800500D01*
X141592048Y-140110500D02*
X141592048Y-138800500D01*
X138062048Y-141500500D02*
X139062048Y-141500500D01*
X152632048Y-138800500D02*
X145692048Y-138800500D01*
X145692048Y-138800500D02*
X145692048Y-140110500D01*
X153932048Y-130990500D02*
X153932048Y-140110500D01*
%TO.C,C3*%
X129144248Y-101043000D02*
X129666752Y-101043000D01*
X129144248Y-102513000D02*
X129666752Y-102513000D01*
%TO.C,R3*%
X152290901Y-108662999D02*
X152745029Y-108662999D01*
X152290901Y-110132999D02*
X152745029Y-110132999D01*
D13*
%TO.C,JP2*%
X160520500Y-129083000D02*
X161155500Y-129718000D01*
X160520500Y-120193000D02*
X161155500Y-119558000D01*
X163060500Y-125273000D02*
X163060500Y-126543000D01*
X160520500Y-129083000D02*
X160520500Y-127813000D01*
X163060500Y-124003000D02*
X162425500Y-124638000D01*
X161155500Y-122098000D02*
X162425500Y-122098000D01*
X161155500Y-127178000D02*
X160520500Y-126543000D01*
X162425500Y-124638000D02*
X163060500Y-125273000D01*
X160520500Y-121463000D02*
X161155500Y-122098000D01*
X160520500Y-124003000D02*
X160520500Y-122733000D01*
X160520500Y-126543000D02*
X160520500Y-125273000D01*
X162425500Y-122098000D02*
X163060500Y-121463000D01*
X163060500Y-117653000D02*
X163060500Y-118923000D01*
X163060500Y-120193000D02*
X163060500Y-121463000D01*
X162425500Y-129718000D02*
X163060500Y-129083000D01*
X161155500Y-119558000D02*
X162425500Y-119558000D01*
X161155500Y-127178000D02*
X162425500Y-127178000D01*
X160520500Y-118923000D02*
X161155500Y-119558000D01*
X160520500Y-127813000D02*
X161155500Y-127178000D01*
X161155500Y-129718000D02*
X162425500Y-129718000D01*
X162425500Y-119558000D02*
X163060500Y-120193000D01*
X162425500Y-127178000D02*
X163060500Y-127813000D01*
X160520500Y-125273000D02*
X161155500Y-124638000D01*
X163060500Y-126543000D02*
X162425500Y-127178000D01*
X163060500Y-127813000D02*
X163060500Y-129083000D01*
X163060500Y-122733000D02*
X163060500Y-124003000D01*
X160520500Y-122733000D02*
X161155500Y-122098000D01*
X161155500Y-117018000D02*
X162425500Y-117018000D01*
X162425500Y-117018000D02*
X163060500Y-117653000D01*
X162425500Y-122098000D02*
X163060500Y-122733000D01*
X161155500Y-124638000D02*
X160520500Y-124003000D01*
X160520500Y-118923000D02*
X160520500Y-117653000D01*
X160520500Y-121463000D02*
X160520500Y-120193000D01*
X161155500Y-124638000D02*
X162425500Y-124638000D01*
X162425500Y-119558000D02*
X163060500Y-118923000D01*
X160520500Y-117653000D02*
X161155500Y-117018000D01*
%TO.C,JP1*%
X124960500Y-118288000D02*
X125595500Y-118923000D01*
X126865500Y-124003000D02*
X127500500Y-124638000D01*
X126865500Y-118923000D02*
X127500500Y-119558000D01*
X124960500Y-120828000D02*
X125595500Y-121463000D01*
X125595500Y-126543000D02*
X124960500Y-125908000D01*
X124960500Y-124638000D02*
X125595500Y-124003000D01*
X126865500Y-121463000D02*
X127500500Y-120828000D01*
X124960500Y-117018000D02*
X125595500Y-116383000D01*
X125595500Y-124003000D02*
X124960500Y-123368000D01*
X126865500Y-121463000D02*
X127500500Y-122098000D01*
X124960500Y-120828000D02*
X124960500Y-119558000D01*
X124960500Y-128448000D02*
X124960500Y-127178000D01*
X124960500Y-125908000D02*
X124960500Y-124638000D01*
X127500500Y-119558000D02*
X127500500Y-120828000D01*
X126865500Y-118923000D02*
X127500500Y-118288000D01*
X126865500Y-129083000D02*
X127500500Y-128448000D01*
X126865500Y-126543000D02*
X127500500Y-127178000D01*
X127500500Y-125908000D02*
X126865500Y-126543000D01*
X125595500Y-129083000D02*
X126865500Y-129083000D01*
X127500500Y-122098000D02*
X127500500Y-123368000D01*
X127500500Y-123368000D02*
X126865500Y-124003000D01*
X124960500Y-123368000D02*
X124960500Y-122098000D01*
X127500500Y-124638000D02*
X127500500Y-125908000D01*
X125595500Y-124003000D02*
X126865500Y-124003000D01*
X124960500Y-128448000D02*
X125595500Y-129083000D01*
X124960500Y-119558000D02*
X125595500Y-118923000D01*
X125595500Y-126543000D02*
X126865500Y-126543000D01*
X124960500Y-127178000D02*
X125595500Y-126543000D01*
X125595500Y-121463000D02*
X126865500Y-121463000D01*
X125595500Y-118923000D02*
X126865500Y-118923000D01*
X124960500Y-118288000D02*
X124960500Y-117018000D01*
X125595500Y-116383000D02*
X126865500Y-116383000D01*
X127500500Y-117018000D02*
X127500500Y-118288000D01*
X127500500Y-127178000D02*
X127500500Y-128448000D01*
X124960500Y-122098000D02*
X125595500Y-121463000D01*
X126865500Y-116383000D02*
X127500500Y-117018000D01*
D10*
%TO.C,10k1*%
X176840500Y-109843000D02*
X176840500Y-100063000D01*
X167060500Y-109843000D02*
X176840500Y-109843000D01*
X167060500Y-100063000D02*
X176840500Y-100063000D01*
X167060500Y-109843000D02*
X167060500Y-100063000D01*
D12*
%TO.C,LD2*%
X155805500Y-121138000D02*
X153120500Y-121138000D01*
X153120500Y-121138000D02*
X153120500Y-123058000D01*
X153120500Y-123058000D02*
X155805500Y-123058000D01*
%TO.C,C1*%
X142975000Y-121658748D02*
X142975000Y-122181252D01*
X141505000Y-121658748D02*
X141505000Y-122181252D01*
%TO.C,C7*%
X148055000Y-120708748D02*
X148055000Y-121231252D01*
X146585000Y-120708748D02*
X146585000Y-121231252D01*
%TD*%
M02*
