M48
; DRILL file {KiCad 6.0.4-6f826c9f35~116~ubuntu18.04.1} date Thu Apr 21 22:13:43 2022
; FORMAT={-:-/ absolute / inch / decimal}
; #@! TF.CreationDate,2022-04-21T22:13:43-04:00
; #@! TF.GenerationSoftware,Kicad,Pcbnew,6.0.4-6f826c9f35~116~ubuntu18.04.1
; #@! TF.FileFunction,Plated,1,2,PTH
FMAT,2
INCH
; #@! TA.AperFunction,Plated,PTH,ViaDrill
T1C0.0157
; #@! TA.AperFunction,Plated,PTH,ComponentDrill
T2C0.0236
; #@! TA.AperFunction,Plated,PTH,ComponentDrill
T3C0.0295
; #@! TA.AperFunction,Plated,PTH,ComponentDrill
T4C0.0394
; #@! TA.AperFunction,Plated,PTH,ComponentDrill
T5C0.0400
; #@! TA.AperFunction,Plated,PTH,ComponentDrill
T6C0.1063
%
G90
G05
T1
X4.4412Y-4.307
X4.4697Y-2.9035
X4.4697Y-3.382
X4.4697Y-4.507
X4.5697Y-4.207
X4.5766Y-4.5139
X4.6Y-3.0
X4.6Y-3.1
X4.6Y-3.2
X4.6Y-3.3
X4.6851Y-4.2224
X4.7697Y-4.3128
X4.7697Y-5.007
X4.7947Y-3.2035
X4.8311Y-4.986
X4.8507Y-5.0971
X4.8757Y-4.1269
X4.9447Y-3.182
X5.0Y-4.5
X5.0427Y-5.1143
X5.0492Y-4.9035
X5.0697Y-4.807
X5.0697Y-5.0035
X5.0697Y-5.307
X5.0965Y-4.9746
X5.1Y-4.6
X5.1142Y-5.1858
X5.1654Y-4.7958
X5.1697Y-4.107
X5.2Y-4.4355
X5.2Y-4.6
X5.2Y-5.0605
X5.2037Y-4.1355
X5.2188Y-4.9334
X5.2412Y-4.8707
X5.2577Y-4.2089
X5.265Y-5.307
X5.2982Y-4.407
X5.3Y-4.5
X5.3096Y-5.2153
X5.3193Y-4.4402
X5.3447Y-4.407
X5.3625Y-4.2375
X5.3697Y-5.307
X5.3697Y-5.207
X5.3807Y-4.5807
X5.4197Y-4.182
X5.4408Y-4.3679
X5.4412Y-4.307
X5.4447Y-4.407
X5.4447Y-4.632
X5.4525Y-5.2242
X5.4697Y-5.132
X5.4697Y-5.0617
X5.4947Y-4.457
X5.5171Y-4.695
X5.5197Y-4.6493
X5.5412Y-4.176
X5.5697Y-4.482
X5.5697Y-4.982
X5.5947Y-5.107
X5.6697Y-5.107
X5.6697Y-5.207
X5.6983Y-4.3703
X5.7197Y-4.682
X5.739Y-4.7489
X5.7447Y-5.107
X5.762Y-4.9897
X5.7697Y-4.4309
X5.7697Y-4.532
X5.8024Y-4.8993
X5.8197Y-4.532
X5.8228Y-4.679
X5.8392Y-4.9133
X5.887Y-4.532
X5.8875Y-4.4922
X5.8947Y-5.032
X5.9003Y-5.4225
X5.9197Y-4.3738
X5.9471Y-4.7823
X5.9737Y-4.657
X5.9947Y-5.007
X5.9947Y-5.0904
X5.9947Y-4.7871
X6.0055Y-4.8856
X6.0211Y-4.2334
X6.0447Y-4.882
X6.0697Y-4.032
X6.0697Y-4.507
X6.1526Y-4.9269
X6.1601Y-5.1974
X6.162Y-5.0993
X6.1697Y-4.857
X6.2697Y-4.7871
X6.3Y-4.1
X6.3Y-5.2
T3
X6.6697Y-4.2196
X6.7697Y-4.2196
X6.8697Y-4.2196
T4
X4.3615Y-2.732
X4.3615Y-2.832
X4.3615Y-2.932
X4.3615Y-3.032
X4.3615Y-3.132
X4.3615Y-3.232
X4.3615Y-3.332
X4.3615Y-3.432
X4.3615Y-3.532
X5.4552Y-5.2866
X5.4552Y-5.3866
X5.5552Y-5.2866
X5.5552Y-5.3866
X5.6552Y-5.2866
X5.6552Y-5.3866
X5.7552Y-5.2866
X5.7552Y-5.3866
X5.8552Y-5.2866
X5.8552Y-5.3866
X6.8623Y-2.932
X6.8623Y-3.032
X6.8623Y-3.132
X6.8623Y-3.232
X6.8623Y-3.332
T5
X4.9697Y-4.632
X4.9697Y-4.732
X4.9697Y-4.832
X4.9697Y-4.932
X4.9697Y-5.032
X6.3697Y-4.657
X6.3697Y-4.757
X6.3697Y-4.857
X6.3697Y-4.957
X6.3697Y-5.057
T6
X4.4206Y-2.4607
X4.4206Y-3.8033
X6.83Y-2.4607
X6.83Y-3.8033
T2
G00X6.4135Y-2.4427
M15
G01X6.4135Y-2.4663
M16
G05
G00X6.4528Y-2.7774
M15
G01X6.4528Y-2.801
M16
G05
G00X6.63Y-2.4427
M15
G01X6.63Y-2.4663
M16
G05
G00X6.63Y-2.5608
M15
G01X6.63Y-2.5845
M16
G05
G00X6.63Y-2.7183
M15
G01X6.63Y-2.7419
M16
G05
T0
M30
