%TF.GenerationSoftware,KiCad,Pcbnew,6.0.4-6f826c9f35~116~ubuntu18.04.1*%
%TF.CreationDate,2022-04-21T22:13:37-04:00*%
%TF.ProjectId,368project,33363870-726f-46a6-9563-742e6b696361,rev?*%
%TF.SameCoordinates,Original*%
%TF.FileFunction,Legend,Bot*%
%TF.FilePolarity,Positive*%
%FSLAX46Y46*%
G04 Gerber Fmt 4.6, Leading zero omitted, Abs format (unit mm)*
G04 Created by KiCad (PCBNEW 6.0.4-6f826c9f35~116~ubuntu18.04.1) date 2022-04-21 22:13:37*
%MOMM*%
%LPD*%
G01*
G04 APERTURE LIST*
%ADD10C,0.374772*%
%ADD11C,0.150000*%
%ADD12C,0.120000*%
G04 APERTURE END LIST*
D10*
X151750699Y-119105088D02*
G75*
G03*
X151750699Y-119105088I-187386J0D01*
G01*
D11*
%TO.C,C13*%
X113247485Y-106255626D02*
X113295104Y-106303245D01*
X113437961Y-106350864D01*
X113533199Y-106350864D01*
X113676056Y-106303245D01*
X113771294Y-106208007D01*
X113818913Y-106112769D01*
X113866532Y-105922293D01*
X113866532Y-105779436D01*
X113818913Y-105588960D01*
X113771294Y-105493722D01*
X113676056Y-105398484D01*
X113533199Y-105350864D01*
X113437961Y-105350864D01*
X113295104Y-105398484D01*
X113247485Y-105446103D01*
X112295104Y-106350864D02*
X112866532Y-106350864D01*
X112580818Y-106350864D02*
X112580818Y-105350864D01*
X112676056Y-105493722D01*
X112771294Y-105588960D01*
X112866532Y-105636579D01*
X111961770Y-105350864D02*
X111342723Y-105350864D01*
X111676056Y-105731817D01*
X111533199Y-105731817D01*
X111437961Y-105779436D01*
X111390342Y-105827055D01*
X111342723Y-105922293D01*
X111342723Y-106160388D01*
X111390342Y-106255626D01*
X111437961Y-106303245D01*
X111533199Y-106350864D01*
X111818913Y-106350864D01*
X111914151Y-106303245D01*
X111961770Y-106255626D01*
%TO.C,C8*%
X144177166Y-98735142D02*
X144224785Y-98782761D01*
X144367642Y-98830380D01*
X144462880Y-98830380D01*
X144605738Y-98782761D01*
X144700976Y-98687523D01*
X144748595Y-98592285D01*
X144796214Y-98401809D01*
X144796214Y-98258952D01*
X144748595Y-98068476D01*
X144700976Y-97973238D01*
X144605738Y-97878000D01*
X144462880Y-97830380D01*
X144367642Y-97830380D01*
X144224785Y-97878000D01*
X144177166Y-97925619D01*
X143605738Y-98258952D02*
X143700976Y-98211333D01*
X143748595Y-98163714D01*
X143796214Y-98068476D01*
X143796214Y-98020857D01*
X143748595Y-97925619D01*
X143700976Y-97878000D01*
X143605738Y-97830380D01*
X143415261Y-97830380D01*
X143320023Y-97878000D01*
X143272404Y-97925619D01*
X143224785Y-98020857D01*
X143224785Y-98068476D01*
X143272404Y-98163714D01*
X143320023Y-98211333D01*
X143415261Y-98258952D01*
X143605738Y-98258952D01*
X143700976Y-98306571D01*
X143748595Y-98354190D01*
X143796214Y-98449428D01*
X143796214Y-98639904D01*
X143748595Y-98735142D01*
X143700976Y-98782761D01*
X143605738Y-98830380D01*
X143415261Y-98830380D01*
X143320023Y-98782761D01*
X143272404Y-98735142D01*
X143224785Y-98639904D01*
X143224785Y-98449428D01*
X143272404Y-98354190D01*
X143320023Y-98306571D01*
X143415261Y-98258952D01*
%TO.C,C12*%
X113538357Y-115060142D02*
X113585976Y-115107761D01*
X113728833Y-115155380D01*
X113824071Y-115155380D01*
X113966928Y-115107761D01*
X114062166Y-115012523D01*
X114109785Y-114917285D01*
X114157404Y-114726809D01*
X114157404Y-114583952D01*
X114109785Y-114393476D01*
X114062166Y-114298238D01*
X113966928Y-114203000D01*
X113824071Y-114155380D01*
X113728833Y-114155380D01*
X113585976Y-114203000D01*
X113538357Y-114250619D01*
X112585976Y-115155380D02*
X113157404Y-115155380D01*
X112871690Y-115155380D02*
X112871690Y-114155380D01*
X112966928Y-114298238D01*
X113062166Y-114393476D01*
X113157404Y-114441095D01*
X112205023Y-114250619D02*
X112157404Y-114203000D01*
X112062166Y-114155380D01*
X111824071Y-114155380D01*
X111728833Y-114203000D01*
X111681214Y-114250619D01*
X111633595Y-114345857D01*
X111633595Y-114441095D01*
X111681214Y-114583952D01*
X112252642Y-115155380D01*
X111633595Y-115155380D01*
%TO.C,R1*%
X152063714Y-133600380D02*
X152397048Y-133124190D01*
X152635143Y-133600380D02*
X152635143Y-132600380D01*
X152254190Y-132600380D01*
X152158952Y-132648000D01*
X152111333Y-132695619D01*
X152063714Y-132790857D01*
X152063714Y-132933714D01*
X152111333Y-133028952D01*
X152158952Y-133076571D01*
X152254190Y-133124190D01*
X152635143Y-133124190D01*
X151111333Y-133600380D02*
X151682762Y-133600380D01*
X151397048Y-133600380D02*
X151397048Y-132600380D01*
X151492286Y-132743238D01*
X151587524Y-132838476D01*
X151682762Y-132886095D01*
%TO.C,U2*%
X144772404Y-114619896D02*
X144772404Y-115429420D01*
X144724785Y-115524658D01*
X144677166Y-115572277D01*
X144581928Y-115619896D01*
X144391452Y-115619896D01*
X144296214Y-115572277D01*
X144248595Y-115524658D01*
X144200976Y-115429420D01*
X144200976Y-114619896D01*
X143772404Y-114715135D02*
X143724785Y-114667516D01*
X143629547Y-114619896D01*
X143391452Y-114619896D01*
X143296214Y-114667516D01*
X143248595Y-114715135D01*
X143200976Y-114810373D01*
X143200976Y-114905611D01*
X143248595Y-115048468D01*
X143820023Y-115619896D01*
X143200976Y-115619896D01*
%TO.C,C10*%
X118524170Y-107897142D02*
X118571789Y-107944761D01*
X118714646Y-107992380D01*
X118809884Y-107992380D01*
X118952741Y-107944761D01*
X119047979Y-107849523D01*
X119095598Y-107754285D01*
X119143217Y-107563809D01*
X119143217Y-107420952D01*
X119095598Y-107230476D01*
X119047979Y-107135238D01*
X118952741Y-107040000D01*
X118809884Y-106992380D01*
X118714646Y-106992380D01*
X118571789Y-107040000D01*
X118524170Y-107087619D01*
X117571789Y-107992380D02*
X118143217Y-107992380D01*
X117857503Y-107992380D02*
X117857503Y-106992380D01*
X117952741Y-107135238D01*
X118047979Y-107230476D01*
X118143217Y-107278095D01*
X116952741Y-106992380D02*
X116857503Y-106992380D01*
X116762265Y-107040000D01*
X116714646Y-107087619D01*
X116667027Y-107182857D01*
X116619408Y-107373333D01*
X116619408Y-107611428D01*
X116667027Y-107801904D01*
X116714646Y-107897142D01*
X116762265Y-107944761D01*
X116857503Y-107992380D01*
X116952741Y-107992380D01*
X117047979Y-107944761D01*
X117095598Y-107897142D01*
X117143217Y-107801904D01*
X117190836Y-107611428D01*
X117190836Y-107373333D01*
X117143217Y-107182857D01*
X117095598Y-107087619D01*
X117047979Y-107040000D01*
X116952741Y-106992380D01*
%TO.C,J1*%
X166195136Y-54827622D02*
X166195136Y-55541908D01*
X166242755Y-55684765D01*
X166337993Y-55780003D01*
X166480850Y-55827622D01*
X166576088Y-55827622D01*
X165195136Y-55827622D02*
X165766564Y-55827622D01*
X165480850Y-55827622D02*
X165480850Y-54827622D01*
X165576088Y-54970480D01*
X165671326Y-55065718D01*
X165766564Y-55113337D01*
%TO.C,C2*%
X130757142Y-119213333D02*
X130804761Y-119165714D01*
X130852380Y-119022857D01*
X130852380Y-118927619D01*
X130804761Y-118784761D01*
X130709523Y-118689523D01*
X130614285Y-118641904D01*
X130423809Y-118594285D01*
X130280952Y-118594285D01*
X130090476Y-118641904D01*
X129995238Y-118689523D01*
X129900000Y-118784761D01*
X129852380Y-118927619D01*
X129852380Y-119022857D01*
X129900000Y-119165714D01*
X129947619Y-119213333D01*
X129947619Y-119594285D02*
X129900000Y-119641904D01*
X129852380Y-119737142D01*
X129852380Y-119975238D01*
X129900000Y-120070476D01*
X129947619Y-120118095D01*
X130042857Y-120165714D01*
X130138095Y-120165714D01*
X130280952Y-120118095D01*
X130852380Y-119546666D01*
X130852380Y-120165714D01*
%TO.C,R4*%
X113741294Y-111590864D02*
X114074628Y-111114674D01*
X114312723Y-111590864D02*
X114312723Y-110590864D01*
X113931770Y-110590864D01*
X113836532Y-110638484D01*
X113788913Y-110686103D01*
X113741294Y-110781341D01*
X113741294Y-110924198D01*
X113788913Y-111019436D01*
X113836532Y-111067055D01*
X113931770Y-111114674D01*
X114312723Y-111114674D01*
X112884151Y-110924198D02*
X112884151Y-111590864D01*
X113122247Y-110543245D02*
X113360342Y-111257531D01*
X112741294Y-111257531D01*
%TO.C,R2*%
X151162166Y-137410380D02*
X151495500Y-136934190D01*
X151733595Y-137410380D02*
X151733595Y-136410380D01*
X151352642Y-136410380D01*
X151257404Y-136458000D01*
X151209785Y-136505619D01*
X151162166Y-136600857D01*
X151162166Y-136743714D01*
X151209785Y-136838952D01*
X151257404Y-136886571D01*
X151352642Y-136934190D01*
X151733595Y-136934190D01*
X150781214Y-136505619D02*
X150733595Y-136458000D01*
X150638357Y-136410380D01*
X150400261Y-136410380D01*
X150305023Y-136458000D01*
X150257404Y-136505619D01*
X150209785Y-136600857D01*
X150209785Y-136696095D01*
X150257404Y-136838952D01*
X150828833Y-137410380D01*
X150209785Y-137410380D01*
%TO.C,D1*%
X152368595Y-128955380D02*
X152368595Y-127955380D01*
X152130500Y-127955380D01*
X151987642Y-128003000D01*
X151892404Y-128098238D01*
X151844785Y-128193476D01*
X151797166Y-128383952D01*
X151797166Y-128526809D01*
X151844785Y-128717285D01*
X151892404Y-128812523D01*
X151987642Y-128907761D01*
X152130500Y-128955380D01*
X152368595Y-128955380D01*
X150844785Y-128955380D02*
X151416214Y-128955380D01*
X151130500Y-128955380D02*
X151130500Y-127955380D01*
X151225738Y-128098238D01*
X151320976Y-128193476D01*
X151416214Y-128241095D01*
%TO.C,D2*%
X128112723Y-103250864D02*
X128112723Y-102250864D01*
X127874628Y-102250864D01*
X127731770Y-102298484D01*
X127636532Y-102393722D01*
X127588913Y-102488960D01*
X127541294Y-102679436D01*
X127541294Y-102822293D01*
X127588913Y-103012769D01*
X127636532Y-103108007D01*
X127731770Y-103203245D01*
X127874628Y-103250864D01*
X128112723Y-103250864D01*
X127160342Y-102346103D02*
X127112723Y-102298484D01*
X127017485Y-102250864D01*
X126779389Y-102250864D01*
X126684151Y-102298484D01*
X126636532Y-102346103D01*
X126588913Y-102441341D01*
X126588913Y-102536579D01*
X126636532Y-102679436D01*
X127207961Y-103250864D01*
X126588913Y-103250864D01*
%TO.C,FB1*%
X135438571Y-113466666D02*
X135438571Y-113133333D01*
X135962380Y-113133333D02*
X134962380Y-113133333D01*
X134962380Y-113609523D01*
X135438571Y-114323809D02*
X135486190Y-114466666D01*
X135533809Y-114514285D01*
X135629047Y-114561904D01*
X135771904Y-114561904D01*
X135867142Y-114514285D01*
X135914761Y-114466666D01*
X135962380Y-114371428D01*
X135962380Y-113990476D01*
X134962380Y-113990476D01*
X134962380Y-114323809D01*
X135010000Y-114419047D01*
X135057619Y-114466666D01*
X135152857Y-114514285D01*
X135248095Y-114514285D01*
X135343333Y-114466666D01*
X135390952Y-114419047D01*
X135438571Y-114323809D01*
X135438571Y-113990476D01*
X135962380Y-115514285D02*
X135962380Y-114942857D01*
X135962380Y-115228571D02*
X134962380Y-115228571D01*
X135105238Y-115133333D01*
X135200476Y-115038095D01*
X135248095Y-114942857D01*
%TO.C,C11*%
X118647485Y-111495626D02*
X118695104Y-111543245D01*
X118837961Y-111590864D01*
X118933199Y-111590864D01*
X119076056Y-111543245D01*
X119171294Y-111448007D01*
X119218913Y-111352769D01*
X119266532Y-111162293D01*
X119266532Y-111019436D01*
X119218913Y-110828960D01*
X119171294Y-110733722D01*
X119076056Y-110638484D01*
X118933199Y-110590864D01*
X118837961Y-110590864D01*
X118695104Y-110638484D01*
X118647485Y-110686103D01*
X117695104Y-111590864D02*
X118266532Y-111590864D01*
X117980818Y-111590864D02*
X117980818Y-110590864D01*
X118076056Y-110733722D01*
X118171294Y-110828960D01*
X118266532Y-110876579D01*
X116742723Y-111590864D02*
X117314151Y-111590864D01*
X117028437Y-111590864D02*
X117028437Y-110590864D01*
X117123675Y-110733722D01*
X117218913Y-110828960D01*
X117314151Y-110876579D01*
%TO.C,U5*%
X127761904Y-106712380D02*
X127761904Y-107521904D01*
X127714285Y-107617142D01*
X127666666Y-107664761D01*
X127571428Y-107712380D01*
X127380952Y-107712380D01*
X127285714Y-107664761D01*
X127238095Y-107617142D01*
X127190476Y-107521904D01*
X127190476Y-106712380D01*
X126238095Y-106712380D02*
X126714285Y-106712380D01*
X126761904Y-107188571D01*
X126714285Y-107140952D01*
X126619047Y-107093333D01*
X126380952Y-107093333D01*
X126285714Y-107140952D01*
X126238095Y-107188571D01*
X126190476Y-107283809D01*
X126190476Y-107521904D01*
X126238095Y-107617142D01*
X126285714Y-107664761D01*
X126380952Y-107712380D01*
X126619047Y-107712380D01*
X126714285Y-107664761D01*
X126761904Y-107617142D01*
%TO.C,C4*%
X132465886Y-129533296D02*
X132513505Y-129485677D01*
X132561124Y-129342820D01*
X132561124Y-129247582D01*
X132513505Y-129104724D01*
X132418267Y-129009486D01*
X132323029Y-128961867D01*
X132132553Y-128914248D01*
X131989696Y-128914248D01*
X131799220Y-128961867D01*
X131703982Y-129009486D01*
X131608744Y-129104724D01*
X131561124Y-129247582D01*
X131561124Y-129342820D01*
X131608744Y-129485677D01*
X131656363Y-129533296D01*
X131894458Y-130390439D02*
X132561124Y-130390439D01*
X131513505Y-130152343D02*
X132227791Y-129914248D01*
X132227791Y-130533296D01*
%TO.C,C6*%
X152183017Y-116668319D02*
X152230636Y-116620700D01*
X152278255Y-116477843D01*
X152278255Y-116382605D01*
X152230636Y-116239747D01*
X152135398Y-116144509D01*
X152040160Y-116096890D01*
X151849684Y-116049271D01*
X151706827Y-116049271D01*
X151516351Y-116096890D01*
X151421113Y-116144509D01*
X151325875Y-116239747D01*
X151278255Y-116382605D01*
X151278255Y-116477843D01*
X151325875Y-116620700D01*
X151373494Y-116668319D01*
X151278255Y-117525462D02*
X151278255Y-117334986D01*
X151325875Y-117239747D01*
X151373494Y-117192128D01*
X151516351Y-117096890D01*
X151706827Y-117049271D01*
X152087779Y-117049271D01*
X152183017Y-117096890D01*
X152230636Y-117144509D01*
X152278255Y-117239747D01*
X152278255Y-117430224D01*
X152230636Y-117525462D01*
X152183017Y-117573081D01*
X152087779Y-117620700D01*
X151849684Y-117620700D01*
X151754446Y-117573081D01*
X151706827Y-117525462D01*
X151659208Y-117430224D01*
X151659208Y-117239747D01*
X151706827Y-117144509D01*
X151754446Y-117096890D01*
X151849684Y-117049271D01*
D12*
%TO.C,C13*%
X112865880Y-108313484D02*
X112343376Y-108313484D01*
X112865880Y-106843484D02*
X112343376Y-106843484D01*
%TO.C,C8*%
X143749248Y-97433000D02*
X144271752Y-97433000D01*
X143749248Y-95963000D02*
X144271752Y-95963000D01*
%TO.C,C12*%
X113156752Y-115648000D02*
X112634248Y-115648000D01*
X113156752Y-117118000D02*
X112634248Y-117118000D01*
%TO.C,R1*%
X152124112Y-135533000D02*
X151669984Y-135533000D01*
X152124112Y-134063000D02*
X151669984Y-134063000D01*
%TO.C,U2*%
X149120500Y-127677516D02*
X149120500Y-126727516D01*
X148170500Y-117457516D02*
X149120500Y-117457516D01*
X139850500Y-127677516D02*
X138900500Y-127677516D01*
X149120500Y-118407516D02*
X150460500Y-118407516D01*
X138900500Y-127677516D02*
X138900500Y-126727516D01*
X139850500Y-117457516D02*
X138900500Y-117457516D01*
X149120500Y-117457516D02*
X149120500Y-118407516D01*
X138900500Y-117457516D02*
X138900500Y-118407516D01*
X148170500Y-127677516D02*
X149120500Y-127677516D01*
%TO.C,C10*%
X118142565Y-108485000D02*
X117620061Y-108485000D01*
X118142565Y-109955000D02*
X117620061Y-109955000D01*
%TO.C,J1*%
X163201803Y-60045242D02*
X162001803Y-60045242D01*
X162001803Y-60045242D02*
X162001803Y-71445242D01*
X169601803Y-69345242D02*
X170101803Y-68845242D01*
X163201803Y-60045242D02*
X163201803Y-57245242D01*
X170101803Y-69845242D02*
X169601803Y-69345242D01*
X169001803Y-60045242D02*
X169001803Y-57245242D01*
X169301803Y-60045242D02*
X169301803Y-71445242D01*
X169301803Y-60045242D02*
X169001803Y-60045242D01*
X162001803Y-71445242D02*
X163101803Y-71445242D01*
X170101803Y-68845242D02*
X170101803Y-69845242D01*
X163201803Y-57245242D02*
X169001803Y-57245242D01*
X169301803Y-71445242D02*
X164701803Y-71445242D01*
%TO.C,C2*%
X131345000Y-119118748D02*
X131345000Y-119641252D01*
X132815000Y-119118748D02*
X132815000Y-119641252D01*
%TO.C,R4*%
X113801692Y-113523484D02*
X113347564Y-113523484D01*
X113801692Y-112053484D02*
X113347564Y-112053484D01*
%TO.C,R2*%
X150093952Y-139463000D02*
X149639824Y-139463000D01*
X150093952Y-137993000D02*
X149639824Y-137993000D01*
%TO.C,D1*%
X153130500Y-129503000D02*
X153130500Y-131203000D01*
X153130500Y-129503000D02*
X150580500Y-129503000D01*
X153130500Y-131203000D02*
X150580500Y-131203000D01*
%TO.C,D2*%
X128874628Y-103798484D02*
X128874628Y-105498484D01*
X128874628Y-103798484D02*
X126324628Y-103798484D01*
X128874628Y-105498484D02*
X126324628Y-105498484D01*
%TO.C,FB1*%
X136450000Y-114038748D02*
X136450000Y-114561252D01*
X137870000Y-114038748D02*
X137870000Y-114561252D01*
%TO.C,C11*%
X118265880Y-112083484D02*
X117743376Y-112083484D01*
X118265880Y-113553484D02*
X117743376Y-113553484D01*
%TO.C,U5*%
X125090000Y-115170000D02*
X125090000Y-113910000D01*
X128850000Y-115170000D02*
X125090000Y-115170000D01*
X125090000Y-108350000D02*
X125090000Y-109610000D01*
X131100000Y-108350000D02*
X125090000Y-108350000D01*
%TO.C,C4*%
X133053744Y-129438711D02*
X133053744Y-129961215D01*
X134523744Y-129438711D02*
X134523744Y-129961215D01*
%TO.C,C6*%
X154240875Y-116573734D02*
X154240875Y-117096238D01*
X152770875Y-116573734D02*
X152770875Y-117096238D01*
%TD*%
M02*
