%TF.GenerationSoftware,KiCad,Pcbnew,6.0.4-6f826c9f35~116~ubuntu18.04.1*%
%TF.CreationDate,2022-04-21T22:13:37-04:00*%
%TF.ProjectId,368project,33363870-726f-46a6-9563-742e6b696361,rev?*%
%TF.SameCoordinates,Original*%
%TF.FileFunction,Soldermask,Top*%
%TF.FilePolarity,Negative*%
%FSLAX46Y46*%
G04 Gerber Fmt 4.6, Leading zero omitted, Abs format (unit mm)*
G04 Created by KiCad (PCBNEW 6.0.4-6f826c9f35~116~ubuntu18.04.1) date 2022-04-21 22:13:37*
%MOMM*%
%LPD*%
G01*
G04 APERTURE LIST*
G04 Aperture macros list*
%AMRoundRect*
0 Rectangle with rounded corners*
0 $1 Rounding radius*
0 $2 $3 $4 $5 $6 $7 $8 $9 X,Y pos of 4 corners*
0 Add a 4 corners polygon primitive as box body*
4,1,4,$2,$3,$4,$5,$6,$7,$8,$9,$2,$3,0*
0 Add four circle primitives for the rounded corners*
1,1,$1+$1,$2,$3*
1,1,$1+$1,$4,$5*
1,1,$1+$1,$6,$7*
1,1,$1+$1,$8,$9*
0 Add four rect primitives between the rounded corners*
20,1,$1+$1,$2,$3,$4,$5,0*
20,1,$1+$1,$4,$5,$6,$7,0*
20,1,$1+$1,$6,$7,$8,$9,0*
20,1,$1+$1,$8,$9,$2,$3,0*%
G04 Aperture macros list end*
%ADD10C,4.000000*%
%ADD11R,1.500000X1.500000*%
%ADD12C,1.500000*%
%ADD13RoundRect,0.250000X-0.250000X-0.475000X0.250000X-0.475000X0.250000X0.475000X-0.250000X0.475000X0*%
%ADD14RoundRect,0.243750X-0.243750X-0.456250X0.243750X-0.456250X0.243750X0.456250X-0.243750X0.456250X0*%
%ADD15R,1.550000X1.300000*%
%ADD16RoundRect,0.250000X0.600000X-0.600000X0.600000X0.600000X-0.600000X0.600000X-0.600000X-0.600000X0*%
%ADD17C,1.700000*%
%ADD18RoundRect,0.250000X-0.262500X-0.450000X0.262500X-0.450000X0.262500X0.450000X-0.262500X0.450000X0*%
%ADD19O,3.251200X1.727200*%
%ADD20R,1.400000X2.000000*%
%ADD21O,1.400000X2.000000*%
%ADD22C,1.200000*%
%ADD23RoundRect,0.250000X-0.475000X0.250000X-0.475000X-0.250000X0.475000X-0.250000X0.475000X0.250000X0*%
G04 APERTURE END LIST*
D10*
%TO.C,U1*%
X112283000Y-96603000D03*
X173483000Y-62503000D03*
X112283000Y-62503000D03*
X173483000Y-96603000D03*
D11*
X110783000Y-69393000D03*
D12*
X110783000Y-71933000D03*
X110783000Y-74473000D03*
X110783000Y-77013000D03*
X110783000Y-79553000D03*
X110783000Y-82093000D03*
X110783000Y-84633000D03*
X110783000Y-87173000D03*
X110783000Y-89713000D03*
X174303000Y-74473000D03*
X174303000Y-77013000D03*
X174303000Y-79553000D03*
X174303000Y-82093000D03*
X174303000Y-84633000D03*
%TD*%
D13*
%TO.C,C5*%
X155760500Y-101778000D03*
X157660500Y-101778000D03*
%TD*%
%TO.C,C9*%
X135018487Y-109397999D03*
X136918487Y-109397999D03*
%TD*%
D14*
%TO.C,LD1*%
X132580500Y-122098000D03*
X134455500Y-122098000D03*
%TD*%
D15*
%TO.C,SW1*%
X140090833Y-107319816D03*
X148050833Y-107319816D03*
X140090833Y-111819816D03*
X148050833Y-111819816D03*
%TD*%
D16*
%TO.C,J2*%
X138562048Y-136820500D03*
D17*
X138562048Y-134280500D03*
X141102048Y-136820500D03*
X141102048Y-134280500D03*
X143642048Y-136820500D03*
X143642048Y-134280500D03*
X146182048Y-136820500D03*
X146182048Y-134280500D03*
X148722048Y-136820500D03*
X148722048Y-134280500D03*
%TD*%
D13*
%TO.C,C3*%
X128455500Y-101778000D03*
X130355500Y-101778000D03*
%TD*%
D18*
%TO.C,R3*%
X151605465Y-109397999D03*
X153430465Y-109397999D03*
%TD*%
D19*
%TO.C,JP2*%
X161790500Y-128448000D03*
X161790500Y-125908000D03*
X161790500Y-123368000D03*
X161790500Y-120828000D03*
X161790500Y-118288000D03*
%TD*%
%TO.C,JP1*%
X126230500Y-127813000D03*
X126230500Y-125273000D03*
X126230500Y-122733000D03*
X126230500Y-120193000D03*
X126230500Y-117653000D03*
%TD*%
D14*
%TO.C,LD2*%
X153868000Y-122098000D03*
X155743000Y-122098000D03*
%TD*%
D20*
%TO.C,J1*%
X168401803Y-69345242D03*
D21*
X163901803Y-70845242D03*
X168401803Y-62345242D03*
X168401803Y-65345242D03*
X162901803Y-62345242D03*
D22*
X166101803Y-70645242D03*
X166101803Y-63645242D03*
%TD*%
D23*
%TO.C,C1*%
X142240000Y-122870000D03*
X142240000Y-120970000D03*
%TD*%
%TO.C,C7*%
X147320000Y-121920000D03*
X147320000Y-120020000D03*
%TD*%
M02*
